<?xml version="1.0" encoding="utf-8"?>
<!-- Generator: Adobe Illustrator 24.1.3, SVG Export Plug-In . SVG Version: 6.00 Build 0)  -->
<svg version="1.1" id="Calque_1" xmlns="http://www.w3.org/2000/svg" xmlns:xlink="http://www.w3.org/1999/xlink" x="0px" y="0px"
	 viewBox="0 0 317.55 800" style="enable-background:new 0 0 317.55 800;" xml:space="preserve">
<style type="text/css">
	.st0{fill:#FFFFFF;}
	.st1{fill:none;stroke:#FFFFFF;stroke-miterlimit:10;}
</style>
<g>
	
		<rect x="563.2" y="422.49" transform="matrix(0.7071 -0.7071 0.7071 0.7071 -179.7506 552.909)" class="st0" width="28.68" height="141.87"/>
	<path class="st0" d="M508.78,474.88C508.78,474.87,508.78,474.87,508.78,474.88L508.78,474.88V12.87h-28.68v462h0
		c0,19.8-16.05,35.85-35.85,35.85s-35.85-16.05-35.85-35.85s16.05-35.85,35.85-35.85v-28.68c-35.64,0-64.52,28.89-64.52,64.52
		c0,35.63,28.89,64.52,64.52,64.52c35.6,0,64.46-28.83,64.52-64.41h0V474.88z"/>
	<polyline class="st0" points="480.11,462.03 485.64,444.55 588.88,341.32 609.15,361.6 508.72,462.03 508.78,462.03 508.78,788.61 
		480.11,788.61 480.11,462.03 	"/>
</g>
<path class="st1" d="M164.41,439.41l118.37,119.94 M245.73,357.23L141.52,462.84v323.13 M90.6,425.15
	c-28.12,0-50.92,23.11-50.92,51.61c0,28.5,22.8,51.61,50.92,51.61c28.12,0,50.92-23.11,50.92-51.61V9.77"/>
</svg>
