<svg id="Calque_1" data-name="Calque 1" xmlns="http://www.w3.org/2000/svg" viewBox="0 0 593.58 778.84"><defs><style>.cls-1{fill:#fff;}.cls-2{fill:none;stroke:#fff;stroke-miterlimit:10;stroke-width:28px;}</style></defs><rect class="cls-1" x="227.97" y="422.49" width="28.68" height="141.87" transform="translate(13.03 306.09) rotate(-45)"/><path class="cls-1" d="M173.56,474.88h0v-462H144.88v462h0A35.85,35.85,0,1,1,109,439V410.34A64.53,64.53,0,1,0,173.55,475h0Z" transform="translate(290.97 -9.77)"/><polyline class="cls-1" points="435.85 452.26 441.39 434.78 544.62 331.55 564.9 351.82 464.46 452.26 464.53 452.26 464.53 778.84 435.85 778.84 435.85 452.26"/><path class="cls-2" d="M-152.23,439.41l118.37,120m-37-202.13L-175.13,462.84V786M-226,425.15c-28.12,0-50.92,23.11-50.92,51.61s22.8,51.61,50.92,51.61,50.92-23.11,50.92-51.61V9.77" transform="translate(290.97 -9.77)"/></svg>