<svg id="icons" xmlns="http://www.w3.org/2000/svg" viewBox="0 0 48 48"><title>Id-indesign-file-format</title><g id="Id-indesign-file-format"><polygon points="41 46 16.44 46 7 36 7 2 41 2 41 46" fill="#c3cce9"/><path d="M40,46H16.88a1,1,0,0,1-.73-.31l-8.88-9.4A1,1,0,0,1,7,35.6V3A1,1,0,0,1,8,2H40a1,1,0,0,1,1,1V45A1,1,0,0,1,40,46Z" fill="none" stroke="#2d346a" stroke-linecap="round" stroke-linejoin="round" stroke-width="2"/><path d="M17,46,7,36h8a2,2,0,0,1,2,2Z" fill="#ffc12e"/><path d="M17,46,7,36h9a1,1,0,0,1,1,1Z" fill="none" stroke="#2d346a" stroke-linecap="round" stroke-linejoin="round" stroke-width="2"/><line x1="18" y1="26" x2="18" y2="12" fill="none" stroke="#2d346a" stroke-linecap="round" stroke-linejoin="round" stroke-width="2"/><circle cx="26" cy="22" r="4" fill="none" stroke="#2d346a" stroke-linecap="round" stroke-linejoin="round" stroke-width="2"/><line x1="30" y1="12" x2="30" y2="26" fill="none" stroke="#2d346a" stroke-linecap="round" stroke-linejoin="round" stroke-width="2"/></g></svg>